<svg width="50" height="50" viewBox="0 0 50 50" xmlns="http://www.w3.org/2000/svg"><title>social-media-linkedin</title><g transform="translate(3 3)" fill="none"><circle fill="#007AB9" cx="22" cy="22" r="22"/><path d="M34.895 23.78v8.926h-5.221v-8.328c0-2.091-.754-3.52-2.645-3.52-1.442 0-2.3.962-2.678 1.893-.137.333-.173.795-.173 1.261v8.694h-5.221s.07-14.106 0-15.566h5.222v2.206c-.01.017-.026.034-.035.051h.035v-.05c.693-1.06 1.93-2.572 4.705-2.572 3.435 0 6.01 2.225 6.01 7.005zm-21.4-14.143c-1.787 0-2.955 1.162-2.955 2.69 0 1.494 1.134 2.69 2.886 2.69h.034c1.82 0 2.953-1.196 2.953-2.69-.034-1.528-1.132-2.69-2.919-2.69zm-2.645 23.07h5.22V17.14h-5.22v15.566z" fill="#F1F2F2"/></g></svg>