<svg width="50" height="50" viewBox="0 0 50 50" xmlns="http://www.w3.org/2000/svg" xmlns:xlink="http://www.w3.org/1999/xlink"><title>social-media-instagram</title><defs><linearGradient x1="9.154%" y1="90.847%" x2="90.846%" y2="9.153%" id="b"><stop stop-color="#FFC107" offset="0%"/><stop stop-color="#F44336" offset="50.7%"/><stop stop-color="#9C27B0" offset="99%"/></linearGradient><circle id="a" cx="22" cy="22" r="22"/></defs><g transform="translate(3 3)" fill="none" fill-rule="evenodd"><mask id="c" fill="#fff"><use xlink:href="#a"/></mask><use fill="url(#b)" fill-rule="nonzero" xlink:href="#a"/><path d="M17.125 9h9.75a8.126 8.126 0 0 1 8.121 7.877l.004.248v9.75a8.126 8.126 0 0 1-7.877 8.121l-.248.004h-9.75a8.126 8.126 0 0 1-8.121-7.877L9 26.875v-9.75a8.126 8.126 0 0 1 7.877-8.121L17.125 9h9.75zm9.75 2.438h-9.75a5.694 5.694 0 0 0-5.683 5.47l-.005.217v9.75a5.694 5.694 0 0 0 5.47 5.683l.218.005h9.75a5.694 5.694 0 0 0 5.683-5.47l.005-.218v-9.75a5.694 5.694 0 0 0-5.688-5.688zM22 15.5a6.5 6.5 0 1 1 0 13 6.5 6.5 0 0 1 0-13zm0 2.438A4.067 4.067 0 0 0 17.937 22 4.068 4.068 0 0 0 22 26.063 4.068 4.068 0 0 0 26.063 22 4.067 4.067 0 0 0 22 17.937zm6.988-3.792a.866.866 0 1 1 0 1.733.866.866 0 0 1 0-1.733z" fill="#FFF" fill-rule="nonzero" mask="url(#c)"/></g></svg>