<svg width="50" height="50" viewBox="0 0 50 50" xmlns="http://www.w3.org/2000/svg"><title>social-media-twitter</title><g transform="translate(3 3)" fill="none" fill-rule="evenodd"><circle fill="#55ACEE" cx="22" cy="22" r="22"/><path d="M35.2 15.392a10.46 10.46 0 0 1-3.007.823 5.243 5.243 0 0 0 2.302-2.892 10.492 10.492 0 0 1-3.325 1.268 5.235 5.235 0 0 0-3.822-1.65 5.232 5.232 0 0 0-5.1 6.419 14.87 14.87 0 0 1-10.792-5.463 5.225 5.225 0 0 0 1.62 6.98 5.205 5.205 0 0 1-2.371-.655v.066a5.232 5.232 0 0 0 4.2 5.125 5.225 5.225 0 0 1-2.364.09 5.24 5.24 0 0 0 4.89 3.631 10.516 10.516 0 0 1-6.503 2.238c-.421 0-.84-.025-1.248-.074a14.827 14.827 0 0 0 8.025 2.35c9.63 0 14.897-7.966 14.897-14.874 0-.227-.005-.452-.015-.676a10.608 10.608 0 0 0 2.613-2.706z" fill="#F1F2F2"/></g></svg>